<?xml version="1.0" encoding="UTF-8"?>
<svg width="152px" height="250px" viewBox="0 0 152 250" version="1.1" xmlns="http://www.w3.org/2000/svg" xmlns:xlink="http://www.w3.org/1999/xlink">
    <defs></defs>
    <g id="Symbols" stroke="none" stroke-width="1" fill="none" fill-rule="evenodd">
        <g id="next" fill-rule="nonzero" fill="#00467E">
            <path d="M145.95992,125 C145.95992,127.084168 145.158317,128.927856 143.55511,130.531062 L31.490982,242.59519 C29.8877756,244.198397 28.0440882,245 25.9599198,245 C23.8757515,245 22.0320641,244.198397 20.4288577,242.59519 L8.40480962,230.571142 C6.80160321,228.967936 6,227.124248 6,225.04008 C6,222.955912 6.80160321,221.112224 8.40480962,219.509018 L102.913828,125 L8.40480962,30.490982 C6.80160321,28.8877756 6,27.0440882 6,24.9599198 C6,22.8757515 6.80160321,21.0320641 8.40480962,19.4288577 L20.4288577,7.40480962 C22.0320641,5.80160321 23.8757515,5 25.9599198,5 C28.0440882,5 29.8877756,5.80160321 31.490982,7.40480962 L143.55511,119.468938 C145.158317,121.072144 145.95992,122.915832 145.95992,125 Z" id="Shape"></path>
        </g>
    </g>
</svg>