<?xml version="1.0" encoding="UTF-8"?>
<svg width="152px" height="250px" viewBox="0 0 152 250" version="1.1" xmlns="http://www.w3.org/2000/svg" xmlns:xlink="http://www.w3.org/1999/xlink">
    <defs></defs>
    <g id="Symbols" stroke="none" stroke-width="1" fill="none" fill-rule="evenodd">
        <g id="prev" fill-rule="nonzero" fill="#00467E">
            <path d="M145.95992,24.9599198 C145.95992,27.0440882 145.158317,28.8877756 143.55511,30.490982 L49.0460922,125 L143.55511,219.509018 C145.158317,221.112224 145.95992,222.955912 145.95992,225.04008 C145.95992,227.124248 145.158317,228.967936 143.55511,230.571142 L131.531062,242.59519 C129.927856,244.198397 128.084168,245 126,245 C123.915832,245 122.072144,244.198397 120.468938,242.59519 L8.40480962,130.531062 C6.80160321,128.927856 6,127.084168 6,125 C6,122.915832 6.80160321,121.072144 8.40480962,119.468938 L120.468938,7.40480962 C122.072144,5.80160321 123.915832,5 126,5 C128.084168,5 129.927856,5.80160321 131.531062,7.40480962 L143.55511,19.4288577 C145.158317,21.0320641 145.95992,22.8757515 145.95992,24.9599198 Z" id="Shape"></path>
        </g>
    </g>
</svg>