<?xml version="1.0" encoding="UTF-8"?>
<svg width="250px" height="205px" viewBox="0 0 250 205" version="1.1" xmlns="http://www.w3.org/2000/svg" xmlns:xlink="http://www.w3.org/1999/xlink">
    <defs></defs>
    <g id="Symbols" stroke="none" stroke-width="1" fill="none" fill-rule="evenodd">
        <g id="twitter" fill="#00467E" fill-rule="nonzero">
            <path d="M80.4771092,200.050068 C171.047675,200.050068 220.577195,125.01647 220.577195,59.9499822 C220.577195,57.8187632 220.533786,55.6972085 220.43819,53.5852376 C230.052555,46.6348366 238.40895,37.9612915 245,28.0876018 C236.177303,32.0092123 226.682937,34.649176 216.723074,35.8395757 C226.889108,29.743579 234.693833,20.1004634 238.37593,8.60478262 C228.862235,14.2447856 218.326541,18.3439775 207.108709,20.5571014 C198.12333,10.9862264 185.331022,5 171.166385,5 C143.974276,5 121.923573,27.0515087 121.923573,54.2331481 C121.923573,58.097095 122.355567,61.8555399 123.200387,65.4606447 C82.276118,63.4014247 45.9874898,43.8077882 21.7011125,14.0143726 C17.4723385,21.2911047 15.0339559,29.7438206 15.0339559,38.7630254 C15.0339559,55.8462803 23.7269907,70.9274151 36.9461377,79.7501125 C28.8675911,79.5005159 21.2787022,77.2828981 14.6457733,73.5917006 C14.6385251,73.798291 14.6385251,73.999703 14.6385251,74.2205 C14.6385251,98.0671518 31.6114459,117.977213 54.1421427,122.488829 C50.0045352,123.616814 45.6512528,124.221638 41.1581602,124.221638 C37.9902038,124.221638 34.9037496,123.909835 31.9037909,123.33365 C38.1725369,142.898213 56.3504344,157.135332 77.9018158,157.533179 C61.0488933,170.742662 39.8188498,178.610205 16.7453418,178.610205 C12.7757319,178.610205 8.85420201,178.384415 5,177.928598 C26.7921834,191.896728 52.6683374,200.046951 80.4797669,200.046951"></path>
        </g>
    </g>
</svg>