<?xml version="1.0" encoding="UTF-8"?>
<svg width="250px" height="180px" viewBox="0 0 250 180" version="1.1" xmlns="http://www.w3.org/2000/svg" xmlns:xlink="http://www.w3.org/1999/xlink">
    <defs></defs>
    <g id="Symbols" stroke="none" stroke-width="1" fill="none" fill-rule="evenodd">
        <g id="youtube" fill-rule="nonzero" fill="#00467E">
            <path d="M242.469738,42.375 C242.469738,42.375 240.126903,25.875 232.910972,18.5625 C223.820773,9 213.606013,9 208.82663,8.4375 C175.370949,6 125.046856,6 125.046856,6 L124.953144,6 C124.953144,6 74.6290512,6 40.985943,8.4375 C36.3002733,9 26.0855135,9 16.9016009,18.5625 C9.77938305,25.875 7.43654822,42.375 7.43654822,42.375 C7.43654822,42.375 5,61.875 5,81.28125 L5,99.46875 C5,118.875 7.43654822,138.28125 7.43654822,138.28125 C7.43654822,138.28125 9.77938305,154.78125 16.9953144,162.09375 C26.0855135,171.65625 38.0808278,171.375 43.4224912,172.3125 C62.6337368,174.1875 124.953144,174.75 124.953144,174.75 C124.953144,174.75 175.370949,174.65625 208.920343,172.21875 C213.606013,171.65625 223.820773,171.65625 233.004686,162.09375 C240.220617,154.78125 242.563452,138.28125 242.563452,138.28125 C242.563452,138.28125 245,118.875 245,99.46875 L245,81.28125 C244.906287,61.875 242.469738,42.375 242.469738,42.375 L242.469738,42.375 Z M100.212807,121.5 L100.212807,54.09375 L165.062475,87.9375 L100.212807,121.5 L100.212807,121.5 Z" id="Shape"></path>
        </g>
    </g>
</svg>