<?xml version="1.0" encoding="UTF-8"?><!DOCTYPE svg PUBLIC "-//W3C//DTD SVG 1.1//EN" "http://www.w3.org/Graphics/SVG/1.1/DTD/svg11.dtd"><svg xmlns="http://www.w3.org/2000/svg"><symbol id="facebook" viewBox="0 0 137 250">
    <path d="M86.899 245V135.524h36.745l5.503-42.664H86.899V65.62c0-12.352 3.43-20.77 21.143-20.77l22.592-.01V6.681C126.727 6.162 113.316 5 97.714 5 65.14 5 42.84 24.883 42.84 61.396V92.86H6v42.664h36.84V245h44.059z"/>
</symbol><symbol id="next" viewBox="0 0 152 250">
    <path d="M145.96 125c0 2.084-.802 3.928-2.405 5.531L31.491 242.595C29.888 244.198 28.044 245 25.96 245c-2.084 0-3.928-.802-5.531-2.405L8.405 230.571C6.802 228.968 6 227.124 6 225.041c0-2.085.802-3.929 2.405-5.532L102.914 125 8.404 30.491C6.803 28.888 6 27.044 6 24.96c0-2.084.802-3.928 2.405-5.531L20.429 7.405C22.032 5.802 23.876 5 25.959 5c2.085 0 3.929.802 5.532 2.405l112.064 112.064c1.603 1.603 2.405 3.447 2.405 5.531z"/>
</symbol><symbol id="prev" viewBox="0 0 152 250">
    <path d="M145.96 24.96c0 2.084-.802 3.928-2.405 5.531L49.046 125l94.51 94.509c1.602 1.603 2.404 3.447 2.404 5.531 0 2.084-.802 3.928-2.405 5.531l-12.024 12.024C129.928 244.198 128.084 245 126 245c-2.084 0-3.928-.802-5.531-2.405L8.405 130.531C6.802 128.928 6 127.084 6 125c0-2.084.802-3.928 2.405-5.531L120.469 7.405C122.072 5.802 123.916 5 126 5c2.084 0 3.928.802 5.531 2.405l12.024 12.024c1.603 1.603 2.405 3.447 2.405 5.53z"/>
</symbol><symbol id="twitter" viewBox="0 0 250 205">
    <path d="M80.477 200.05c90.57 0 140.1-75.034 140.1-140.1 0-2.131-.043-4.253-.139-6.365A100.136 100.136 0 0 0 245 28.088c-8.823 3.921-18.317 6.561-28.277 7.752 10.166-6.096 17.97-15.74 21.653-27.235a98.753 98.753 0 0 1-31.267 11.952C198.123 10.987 185.33 5 171.166 5c-27.192 0-49.242 22.052-49.242 49.233 0 3.864.432 7.623 1.276 11.228C82.276 63.4 45.987 43.808 21.701 14.014a49.109 49.109 0 0 0-6.667 24.749c0 17.083 8.693 32.164 21.912 40.987a48.873 48.873 0 0 1-22.3-6.158c-.007.206-.007.408-.007.629 0 23.846 16.972 43.756 39.503 48.268a49.303 49.303 0 0 1-12.984 1.733c-3.168 0-6.254-.312-9.254-.888 6.269 19.564 24.446 33.801 45.998 34.2-16.853 13.209-38.083 21.076-61.157 21.076-3.97 0-7.89-.226-11.745-.681 21.792 13.968 47.668 22.118 75.48 22.118"/>
</symbol><symbol id="youtube" viewBox="0 0 250 180">
    <path d="M242.47 42.375s-2.343-16.5-9.559-23.813C223.821 9 213.606 9 208.827 8.438 175.37 6 125.047 6 125.047 6h-.094S74.63 6 40.986 8.438C36.3 9 26.086 9 16.902 18.562c-7.123 7.313-9.465 23.813-9.465 23.813S5 61.875 5 81.281V99.47c0 19.406 2.437 38.812 2.437 38.812s2.342 16.5 9.558 23.813c9.09 9.562 21.086 9.281 26.427 10.219 19.212 1.875 81.531 2.437 81.531 2.437s50.418-.094 83.967-2.531c4.686-.563 14.9-.563 24.085-10.125 7.216-7.313 9.558-23.813 9.558-23.813S245 118.875 245 99.47V81.28c-.094-19.406-2.53-38.906-2.53-38.906zM100.213 121.5V54.094l64.85 33.843-64.85 33.563z"/>
</symbol></svg>